<svg xmlns="http://www.w3.org/2000/svg" width="20" height="18">
    <path d="M10.73 5.658V7.79h5.635c.884 0 1.484.594 1.485 1.465v2.086h1.038c.686.003 1.11.422 1.11 1.098.002 1.157.003 2.314 0 3.471 0 .66-.427 1.086-1.09 1.087-1.176.002-2.352.002-3.528 0-.664-.001-1.093-.426-1.094-1.084a972.64 972.64 0 0 1 0-3.5c.001-.639.433-1.066 1.078-1.071.347-.003.694 0 1.056 0V9.235h-5.684v2.106h1.01c.69.004 1.102.412 1.103 1.1.002 1.156.002 2.313 0 3.47-.001.67-.416 1.084-1.087 1.086-1.176.003-2.351.003-3.527 0-.656-.002-1.082-.416-1.084-1.06a574.14 574.14 0 0 1 0-3.528c.002-.649.422-1.062 1.076-1.067.339-.003.677 0 1.037 0V9.23H3.582v2.112c.29 0 .588.024.88-.004.825-.08 1.294.529 1.264 1.253-.045 1.097-.01 2.197-.012 3.297 0 .694-.422 1.11-1.126 1.11-1.156.002-2.313.002-3.469 0-.702 0-1.118-.417-1.118-1.118-.001-1.148-.002-2.295 0-3.442 0-.675.427-1.093 1.113-1.095.337-.002.674 0 1.036 0 0-.714.002-1.387 0-2.06-.005-.89.591-1.492 1.487-1.492H9.269V5.658c-.354 0-.692.002-1.03 0-.67-.005-1.087-.417-1.088-1.085a729.486 729.486 0 0 1 0-3.5c.002-.65.42-1.069 1.072-1.07 1.185-.004 2.37-.004 3.556 0 .65.002 1.068.422 1.07 1.073.003 1.166.003 2.333 0 3.5-.001.666-.418 1.078-1.091 1.082-.338.002-.676 0-1.028 0" fill="currentColor" fill-rule="evenodd"></path>
</svg>
